<svg _ngcontent-bsl-c7="" width="17" height="17" viewBox="0 0 13 13" fill="none" xmlns="http://www.w3.org/2000/svg"><path _ngcontent-bsl-c7="" d="M7.04844 0.699219C6.76996 0.699219 6.50289 0.809843 6.30598 1.00676C6.10906 1.20367 5.99844 1.47074 5.99844 1.74922V5.24922C5.99844 5.5277 6.10906 5.79477 6.30598 5.99168C6.50289 6.18859 6.76996 6.29922 7.04844 6.29922H11.2484C11.5269 6.29922 11.794 6.18859 11.9909 5.99168C12.1878 5.79477 12.2984 5.5277 12.2984 5.24922V1.74922C12.2984 1.47074 12.1878 1.20367 11.9909 1.00676C11.794 0.809843 11.5269 0.699219 11.2484 0.699219H7.04844ZM7.74844 4.19922H10.5484C10.6413 4.19922 10.7303 4.23609 10.7959 4.30173C10.8616 4.36737 10.8984 4.45639 10.8984 4.54922C10.8984 4.64204 10.8616 4.73107 10.7959 4.79671C10.7303 4.86234 10.6413 4.89922 10.5484 4.89922H7.74844C7.65561 4.89922 7.56659 4.86234 7.50095 4.79671C7.43531 4.73107 7.39844 4.64204 7.39844 4.54922C7.39844 4.45639 7.43531 4.36737 7.50095 4.30173C7.56659 4.23609 7.65561 4.19922 7.74844 4.19922ZM7.39844 2.44922C7.39844 2.35639 7.43531 2.26737 7.50095 2.20173C7.56659 2.13609 7.65561 2.09922 7.74844 2.09922H10.5484C10.6413 2.09922 10.7303 2.13609 10.7959 2.20173C10.8616 2.26737 10.8984 2.35639 10.8984 2.44922C10.8984 2.54204 10.8616 2.63107 10.7959 2.69671C10.7303 2.76234 10.6413 2.79922 10.5484 2.79922H7.74844C7.65561 2.79922 7.56659 2.76234 7.50095 2.69671C7.43531 2.63107 7.39844 2.54204 7.39844 2.44922ZM2.21844 2.09922H5.29844V5.24922C5.29844 5.71335 5.48281 6.15847 5.811 6.48666C6.13919 6.81484 6.58431 6.99922 7.04844 6.99922H11.2484C11.3681 6.99922 11.485 6.98732 11.5984 6.96422V8.59242C11.5984 9.58502 10.7836 10.3886 9.77844 10.3886H6.56544L3.75774 12.4613C3.60872 12.5712 3.42254 12.6181 3.23925 12.5921C3.05597 12.566 2.89024 12.469 2.77774 12.322C2.68755 12.2032 2.63864 12.0582 2.63844 11.909V10.3886H2.21844C1.21324 10.3886 0.398438 9.58432 0.398438 8.59242V3.89542C0.398437 2.90352 1.21324 2.09922 2.21844 2.09922Z" fill="#5B606A"></path></svg>