<svg _ngcontent-bou-c6="" width="22" height="22" viewBox="0 0 22 22" fill="red" xmlns="http://www.w3.org/2000/svg"><path _ngcontent-bou-c6="" d="m15.125 18.687-1.78-1.78-.97.969 2.75 2.75 5.5-5.5-.97-.97-4.53 4.53z" fill="rgba(0, 0, 0, 0.55)"></path><path _ngcontent-bou-c6="" d="M17.188 3.438h-2.063V2.75a1.38 1.38 0 0 0-1.375-1.375h-5.5A1.38 1.38 0 0 0 6.875 2.75v.688H4.812a1.38 1.38 0 0 0-1.375 1.374V19.25a1.38 1.38 0 0 0 1.376 1.375H11V19.25H4.812V4.812h2.063v2.063h8.25V4.812h2.063v7.563h1.375V4.812a1.38 1.38 0 0 0-1.375-1.375zM13.75 5.5h-5.5V2.75h5.5V5.5z" fill="rgba(0, 0, 0, 0.55)"></path></svg>