<svg _ngcontent-xfp-c5="" width="24" height="24" viewBox="0 0 24 24" fill="none" xmlns="http://www.w3.org/2000/svg"><path _ngcontent-xfp-c5="" d="m16.5 20.386-1.943-1.943-1.057 1.058 3 3 6-6-1.058-1.058-4.942 4.943z" fill="#347AE2"></path><path _ngcontent-xfp-c5="" d="M18.75 3.75H16.5V3A1.504 1.504 0 0 0 15 1.5H9A1.505 1.505 0 0 0 7.5 3v.75H5.25a1.505 1.505 0 0 0-1.5 1.5V21a1.504 1.504 0 0 0 1.5 1.5H12V21H5.25V5.25H7.5V7.5h9V5.25h2.25v8.25h1.5V5.25a1.504 1.504 0 0 0-1.5-1.5zM15 6H9V3h6v3z" fill="#347AE2"></path></svg>