<svg _ngcontent-lyc-c6="" width="24" height="24" viewBox="0 0 24 24" fill="none" xmlns="http://www.w3.org/2000/svg"><path _ngcontent-lyc-c6="" d="M11 18.525a1.3 1.3 0 0 1-.937-.375 1.267 1.267 0 0 1-.387-.95c0-.367.129-.68.387-.938a1.28 1.28 0 0 1 .938-.387h2c.366 0 .68.129.938.387.258.258.387.57.387.938 0 .383-.13.7-.387.95a1.3 1.3 0 0 1-.938.375h-2zm-7 -10.4c-.366 0-.679-.13-.937-.388a1.276 1.276 0 0 1-.387-.937c0-.384.129-.7.387-.95A1.3 1.3 0 0 1 4 5.475h16c.366 0 .68.125.938.375.258.25.387.566.387.95 0 .366-.13.679-.387.937a1.278 1.278 0 0 1-.938.388H4zm3 5.2a1.28 1.28 0 0 1-.937-.387A1.28 1.28 0 0 1 5.676 12c0-.367.129-.68.387-.938A1.28 1.28 0 0 1 7 10.675h10c.366 0 .68.129.938.387.258.258.387.57.387.938 0 .366-.13.679-.387.938a1.28 1.28 0 0 1-.938.387H7z" fill="#6F7A8A"></path></svg>