<svg _ngcontent-xfp-c5="" version="1.1" id="Layer_1" xmlns="http://www.w3.org/2000/svg" xmlns:xlink="http://www.w3.org/1999/xlink" x="0px" y="0px" xml:space="preserve" style="height: 56px; width: 275px; transform: scale(0.7); margin-left: -43px;"><g _ngcontent-xfp-c5=""><path _ngcontent-xfp-c5="" fill="#ffffff" d="M59.7,16.3c2.3,0,4.3,0.3,6.1,1c1.8,0.6,3.6,1.7,5.2,3.1l-4,5.4c-1.1-0.9-2.2-1.5-3.3-1.9
                                 c-1-0.4-2.2-0.6-3.4-0.6c-4.8,0-7.2,3.7-7.2,11.1c0,3.8,0.6,6.4,1.9,8.1c1.2,1.6,3,2.4,5.3,2.4c1.2,0,2.3-0.2,3.3-0.5
                                 c1-0.4,2.1-1,3.5-1.9l4,5.7c-3.2,2.6-7,4-11.1,4c-3.3,0-6.2-0.7-8.7-2.2c-2.4-1.5-4.3-3.5-5.6-6.1c-1.3-2.7-2-5.8-2-9.4
                                 s0.7-6.7,2-9.5c1.3-2.8,3.2-4.9,5.6-6.5C53.6,17.1,56.4,16.3,59.7,16.3z" class="st0"></path><path _ngcontent-xfp-c5="" fill="#ffffff" d="M93.6,16.4c1,0,2.2,0.2,3.4,0.5l-1.5,8.8c-1.2-0.3-2.2-0.4-3-0.4c-2,0-3.6,0.7-4.7,2.1c-1.1,1.4-2,3.5-2.6,6.4
                                 v17.5h-9.1V17.4H84l0.8,6.6c0.8-2.4,2-4.2,3.5-5.6C89.9,17.1,91.7,16.4,93.6,16.4z" class="st0"></path><path _ngcontent-xfp-c5="" fill="#ffffff" d="M128.3,33.5c0-5.4-1.3-9.6-4-12.7c-2.7-3-6.4-4.5-11.3-4.5c-3.2,0-6,0.8-8.3,2.4c-2.3,1.6-4.1,3.8-5.3,6.5
                                 c-1.2,2.7-1.8,5.8-1.8,9.3c0,5.5,1.4,9.8,4.3,13c2.9,3.2,7,4.8,12.3,4.8c4.8,0,9.1-1.5,12.9-4.6l-3.8-5.1c-1.5,1-2.9,1.8-4.2,2.2
                                 c-1.3,0.5-2.6,0.7-4.1,0.7c-2.3,0-4.2-0.6-5.6-1.9c-1.4-1.3-2.2-3.5-2.5-6.5h21.2C128.2,35.1,128.3,34,128.3,33.5z M119.2,31.4
                                 h-12.4c0.2-3.1,0.8-5.4,1.9-6.7c1.1-1.4,2.5-2.1,4.4-2.1c4.1,0,6.1,2.8,6.1,8.4V31.4z" class="st0"></path><path _ngcontent-xfp-c5="" fill="#ffffff" d="M160.7,44.8c-0.4-0.6-0.6-1.6-0.6-2.9V28.2c0-3.9-1.1-6.9-3.3-8.8c-2.2-2-5.6-3-10.2-3
                                 c-4.1,0-8.3,0.8-12.5,2.5l2,6.1c3.6-1.2,6.6-1.8,9-1.8c2.2,0,3.7,0.4,4.7,1.2c0.9,0.8,1.4,2.3,1.4,4.4v1.7h-3.9
                                 c-5,0-8.9,1-11.6,2.9c-2.7,2-4,4.8-4,8.5c0,3.1,1,5.7,2.9,7.6c2,1.9,4.7,2.9,8.1,2.9c4.6,0,8-1.7,10.2-5.1c0.7,1.6,1.6,2.8,2.9,3.6
                                 c1.3,0.8,2.9,1.2,4.9,1.4l1.9-6C161.7,45.9,161.1,45.4,160.7,44.8z M151.2,42c-1.5,2.5-3.5,3.8-6,3.8c-1.4,0-2.5-0.4-3.3-1.2
                                 c-0.7-0.9-1.1-2-1.1-3.5c0-3.7,2.5-5.5,7.4-5.5h3V42z" class="st0"></path><path _ngcontent-xfp-c5="" fill="#ffffff" d="M189.5,49.7c-1.2,0.9-2.6,1.5-4.2,1.9c-1.5,0.5-3.1,0.7-4.6,0.7c-3.5,0-6.1-1-7.9-3s-2.7-4.8-2.7-8.6V23.8H165
                                 v-6.4h5.1V9.9l9.1-1.1v8.5h7.8l-0.9,6.4h-6.9v16.7c0,1.6,0.3,2.8,0.8,3.5c0.6,0.7,1.4,1.1,2.6,1.1c1.2,0,2.4-0.4,3.8-1.2
                                 L189.5,49.7z" class="st0"></path><rect _ngcontent-xfp-c5="" fill="#ffffff" x="193.5" y="17.4" width="9.1" height="33.9" class="st0"></rect><polygon _ngcontent-xfp-c5="" fill="#ffffff" points="239.8,17.4 228.9,51.3 218.1,51.3 207,17.4 216.8,17.4 223.6,44.2 230.4,17.4 	" class="st0"></polygon><path _ngcontent-xfp-c5="" fill="#ffffff" d="M272.3,33.5c0-5.4-1.3-9.6-4-12.7s-6.4-4.5-11.3-4.5c-3.2,0-6,0.8-8.3,2.4c-2.3,1.6-4.1,3.8-5.3,6.5
                                 c-1.2,2.7-1.8,5.8-1.8,9.3c0,5.5,1.4,9.8,4.3,13c2.9,3.2,7,4.8,12.3,4.8c4.8,0,9.1-1.5,12.9-4.6l-3.8-5.1c-1.5,1-2.9,1.8-4.2,2.2
                                 c-1.3,0.5-2.6,0.7-4.1,0.7c-2.3,0-4.2-0.6-5.6-1.9c-1.4-1.3-2.2-3.5-2.5-6.5h21.2C272.3,35.1,272.3,34,272.3,33.5z M263.3,31.4
                                 h-12.4c0.2-3.1,0.8-5.4,1.9-6.7c1.1-1.4,2.5-2.1,4.4-2.1c4.1,0,6.1,2.8,6.1,8.4V31.4z" class="st0"></path><path _ngcontent-xfp-c5="" fill="#F8981D" d="M41.2,17.4L30.3,51.3H19.5L8.4,17.4h9.9L25,44.2l6.8-26.8H41.2z" class="st1"></path><g _ngcontent-xfp-c5=""><path _ngcontent-xfp-c5="" fill="#F8981D" d="M195,1.7h6.1c0.8,0,1.5,0.7,1.5,1.5v6.1c0,0.8-0.7,1.5-1.5,1.5H195c-0.8,0-1.5-0.7-1.5-1.5V3.2
                                     C193.5,2.4,194.2,1.7,195,1.7z" class="st1"></path></g></g></svg>